<?xml version="1.0" standalone="no"?>
<!DOCTYPE svg PUBLIC "-//W3C//DTD SVG 20010904//EN"
 "http://www.w3.org/TR/2001/REC-SVG-20010904/DTD/svg10.dtd">
<svg version="1.0" xmlns="http://www.w3.org/2000/svg"
 width="126.000000pt" height="126.000000pt" viewBox="0 0 126.000000 126.000000"
 preserveAspectRatio="xMidYMid meet">
<metadata>
Created by potrace 1.11, written by Peter Selinger 2001-2013
</metadata>
<g transform="translate(0.000000,126.000000) scale(0.100000,-0.100000)"
fill="#000000" stroke="none">
<path d="M722 1108 c1 -35 -6 -70 -20 -102 -32 -72 -36 -120 -13 -172 24 -53
32 -56 21 -10 -10 44 -4 90 16 141 25 60 33 113 23 151 -15 53 -28 49 -27 -8z"/>
<path d="M592 1087 c0 -24 -5 -53 -11 -65 -6 -11 -11 -32 -11 -46 0 -30 19
-76 32 -76 5 0 4 8 -1 19 -11 20 -9 43 10 95 12 34 6 101 -11 111 -5 3 -9 -14
-8 -38z"/>
<path d="M840 1100 c12 -42 4 -101 -21 -160 -32 -75 -30 -150 6 -188 10 -11
11 -6 5 28 -8 45 -2 84 24 145 26 59 27 123 5 168 -23 45 -31 48 -19 7z"/>
<path d="M355 920 c-150 -35 -245 -187 -210 -335 28 -121 118 -202 243 -219
41 -5 43 -4 36 17 -3 12 -10 26 -15 31 -12 13 -11 83 1 91 19 12 11 45 -11 45
-11 0 -34 13 -50 29 -49 50 -35 122 30 156 16 8 31 12 34 8 8 -8 207 -11 212
-3 2 4 -9 23 -25 42 -60 73 -187 104 -273 66 -41 -18 -42 -18 -18 1 54 42 156
49 221 16 41 -20 100 -74 100 -90 0 -18 37 -48 44 -36 18 29 -69 128 -141 162
-47 21 -131 31 -178 19z m-71 -312 c4 -15 19 -39 34 -53 15 -14 22 -25 16 -25
-6 0 -23 12 -38 26 -19 20 -26 36 -25 63 1 37 3 35 13 -11z"/>
<path d="M454 711 c-2 -2 -4 -100 -4 -217 l0 -213 -57 -11 c-74 -14 -143 -39
-143 -51 0 -16 62 -37 131 -46 95 -12 346 -8 411 6 80 17 108 42 108 95 l0 42
48 0 c56 0 91 21 122 76 27 47 36 137 19 195 -16 59 -75 123 -115 124 -79 4
-516 3 -520 0z m382 -241 c-1 -109 -5 -202 -9 -206 -22 -23 -33 -11 -28 30 3
22 6 115 5 206 -1 91 0 168 3 172 2 4 10 5 17 2 10 -4 13 -48 12 -204z m203
184 c12 -15 21 -32 21 -38 0 -6 -7 1 -16 14 -10 14 -24 31 -32 38 -9 6 -11 12
-5 12 7 0 21 -12 32 -26z m-42 -26 c42 -45 51 -145 19 -206 -20 -39 -66 -56
-95 -36 -19 14 -21 25 -21 124 0 85 3 112 16 124 22 23 57 20 81 -6z"/>
</g>
</svg>
